/* XPM */
static char *_6adc589b6874ef7d5c791ed7dd3a131WGF2mW5jleGpOid8[] = {
/* columns rows colors chars-per-pixel */
"64 64 58 1 ",
"  c None",
". c #F46F00",
"X c #F57500",
"o c #F57C00",
"O c #F68400",
"+ c #F78905",
"@ c #F78C0B",
"# c #F88C0B",
"$ c #F78E11",
"% c #F88F12",
"& c #F78F1D",
"* c #F79115",
"= c #F89115",
"- c #F7941C",
"; c #F8941D",
": c #F79721",
"> c #F89722",
", c #F79825",
"< c #F89926",
"1 c #F79B2B",
"2 c #F89B2B",
"3 c #F89E32",
"4 c #F8A036",
"5 c #F8A33B",
"6 c #F9A643",
"7 c #F9A847",
"8 c #F9AA4B",
"9 c #F9AE53",
"0 c #FAB057",
"q c #FAB25C",
"w c #FAB563",
"e c #FBB768",
"r c #FAB96C",
"t c #FABD72",
"y c #FBBF78",
"u c #FBC27C",
"i c #FBC482",
"p c #FCC789",
"a c #FBC98D",
"s c #FCCC92",
"d c #FCCF99",
"f c #FCD19D",
"g c #FCD5A5",
"h c #FCD7AA",
"j c #FDD9AE",
"k c #FDDBB3",
"l c #FDDFBA",
"z c #FDE0BD",
"x c #FDE2C2",
"c c #FDE6CA",
"v c #FEE8CE",
"b c #FEEBD4",
"n c #FEEEDA",
"m c #FEF0DF",
"M c #FEF3E4",
"N c #FEF6EB",
"B c #FFFAF4",
"V c #FFFFFF",
/* pixels */
"                                                                ",
"                                                                ",
"                                                                ",
"                                                                ",
"                               --                               ",
"                         --------------                         ",
"                      --------------------                      ",
"                   -----------::--:----------                   ",
"                  ------:--:-:-::::::--:-------                 ",
"                -------::::::,:::::::::::--:----                ",
"               -----:::::::,,,><,,:,:,>>::::-----               ",
"             -----:::::::,,,,,,,,,,,,,,,::::::-----             ",
"            -----::::,,,,,,<<<22<<,<<<,,,,,>>:-:----            ",
"           -----::::,,,<2,<221;#;2222<<<,,,,,:::-----           ",
"          -----:::,,,,<<2<222>50<$21,22<<,,,,,:::-----          ",
"         ----:::,,,<<<<2<2221+uVNh<<;#+-32<<,,,,:::----         ",
"         -;;:::,,,<<<22222113+hVVM=#pkr6>2<2<<<>,::----         ",
"        --;;:::,,<<<111#@-212>nVVs+=mVVh+2222<<<,::::---        ",
"       ---;:::,,<<112<2fu6:@o5VVVwO6VVVr#2122<<<,,,::----       ",
"       -;;;:::,<1<112*7VVVngqsVVM*otVVB5;1122222<,,::::--       ",
"      --;:::><<<22211+dVVVVVVVVVmw-gVVc-13112222<<,,::----      ",
"      --;:::<<<<22211=aNVVVVVVVVVVVBVVpo<43422222<,,:::---      ",
"     ---:;::<<<2221413>49xVVVVVVVVVVVVnu4#<423322<<,,::----     ",
"     ---;:,:,<<222114432@:NVVVVVVVVVVVVVBa-=43222<<,,:::---     ",
"     ---::,,<<222243144424NVVVVnrhmVVVVVVVn1=31122<<,,:----     ",
"    ----::,,<22242234444-rVVVVVs.@<0kVVVVVVM><31222<,,:::---    ",
"    ---:::,<<22422444445*fVVVVVw+56-+tVVVVVVa@11222<2,,::---    ",
"    ---:::,<<22134244444:vVVVVV3=5883ogVVVVVv-131122<,,::---    ",
"    ---::,,<2211244344525BVVVVb@,4654OwVVVVVn<231112<,,::---    ",
"   ----::,,<22312434445;rVVVVViX-133,XsVVVVVc-113122<,,::----   ",
"   ---;:,,<2<2112144445=fVVVVVs&@OOoo8BVVVVVd#333222<<,,:----   ",
"   ---:::,<<22134444455>vVVVVVVVbhsakVVVVVVV5<;=21222<,:::---   ",
"   --;;:><<2222433344516BVVVVVVVVVVVVVVVVVVr$<rw*-3<1<,,::---   ",
"   --;::>><<2222334444-rVVVVVBBVVVVVVVVVBk9=4$xVc7-1<<,,:----   ",
"   ---::><<<2224334445=fVVVVVw@wdbVVVVVVBiO<4=hVVu+1<<,:::---   ",
"   ---;::<<<2222334444:cVVVVV3+$#:9zVVVVVVx-1=kVVe#<<,<-OO---   ",
"   --;;::,<<<2141334416BVVVVb@1576-OiVVVVVVf@$kVVq@<11$-sw$--   ",
"   --;:::,,2221234:=,@wVVVVVdO35885<ojVVVVVB3@kVV0$<1-OkVVn&@   ",
"    ---::,,<22111-9u6$kVVVVVwO335643OqVVVVVV9OlVV9$<,OaVVVt+    ",
"    ---:::,<21113+lVVMVVVVVB-O<33331oyVVVVVV9OlVV8*1O9VVVso-    ",
"    ----::,<2<22-5VVVVVVVVVn=OoO@@@o$MVVVVVB3+zVV8=+3BVVlo*-    ",
"    ----:,,,<222+hVVVVVVVVVVBxaw867rMVVVVVVz@*xVV7O%MVVbO@--    ",
"     --:-::,<222:9ukMVVVVVVVVVVVVVVVVVVVVVVw#-cVB1ocVVN$O,-     ",
"     ---::,,,<<23-#@,8tcVVVVVVVVVVVVVVVVVVc@<=cVB#sVVB1O:--     ",
"     ---:::,,<<222312-osVVmjBVVVVVVVVVVVVn;-1-cVviVVV8O,---     ",
"      ---:::>,<2221312-nVVso4nVVVVVVVVVBg:=42=cVBVVVio:---      ",
"      ---->>,,<<22111-7VVVe+1BVVy3tipir4#:43<=vVVVVgO-:---      ",
"       ---->>,><<2111+yVVB4OrVVB5@$$$@$:1111<=vVVVxO$:---       ",
"       ----::,,,<<222+gVVn#+gVVb;23333131111;@nVVn@@,:---       ",
"        -----::,,<,22<50dt@,BVVf+32311311222OaVVB-O:----        ",
"         ----:::,,,2<1>#+-12pbVr#33223112-+oeVVV6O,:---         ",
"         ---:-::,>,,<<222212+-7321222222=hhfVVVto,-----         ",
"          ----:::::,,,<2<2<12<&>122<1<1@9VVVVVao-:----          ",
"           -----:::,,,,,,,<2<22<222<<<2OuVVVVaO=:----           ",
"            ----:-:::,,,,,,,<<<<<<<<,<,,:5tu7O=:----            ",
"             -----:-::::,,,,,,<,<><<,,,,:@OO@-:----             ",
"               ------::::::,,:,:<>:,:,::::-:-----               ",
"                -----::-:::::::::>:::::::-:-----                ",
"                  -------:::::::::-:::--------                  ",
"                    -------------:-:-:------                    ",
"                      -----------------=--                      ",
"                         -=------------                         ",
"                             ----=-                             ",
"                                                                "
};
