/* XPM */
static char *_ed9a277444b487dddbea9563d3bad21ZwMaVf8TqBA63zUb[] = {
/* columns rows colors chars-per-pixel */
"32 32 223 2 ",
"   c None",
".  c #F57300",
"X  c #F67300",
"o  c #F57400",
"O  c #F57C00",
"+  c #F67C00",
"@  c #F67D00",
"#  c #F57E00",
"$  c #F57F00",
"%  c #F67E00",
"&  c #F67F00",
"*  c #F58000",
"=  c #F68000",
"-  c #F68300",
";  c #F68400",
":  c #F68500",
">  c #F68600",
",  c #F78600",
"<  c #F68702",
"1  c #F68802",
"2  c #F68803",
"3  c #F78803",
"4  c #F68804",
"5  c #F78904",
"6  c #F68905",
"7  c #F78905",
"8  c #F68906",
"9  c #F78A06",
"0  c #F78A07",
"q  c #F68808",
"w  c #F78A08",
"e  c #F68A09",
"r  c #F68B0A",
"t  c #F78B0A",
"y  c #F78D09",
"u  c #F78C0A",
"i  c #F78C0C",
"p  c #F78D0D",
"a  c #F78D0F",
"s  c #F78E0E",
"d  c #F68E0F",
"f  c #F78E0F",
"g  c #F68D10",
"h  c #F78E10",
"j  c #F78F11",
"k  c #F78F12",
"l  c #F78F13",
"z  c #F79014",
"x  c #F79114",
"c  c #F79116",
"v  c #F79117",
"b  c #F69217",
"n  c #F79217",
"m  c #F89013",
"M  c #F89116",
"N  c #F79218",
"B  c #F79318",
"V  c #F79219",
"C  c #F79319",
"Z  c #F7901A",
"A  c #F7931A",
"S  c #F7931B",
"D  c #F7941B",
"F  c #F7941C",
"G  c #F7951C",
"H  c #F7941D",
"J  c #F7951D",
"K  c #F7941E",
"L  c #F7951E",
"P  c #F7951F",
"I  c #F7961F",
"U  c #F89319",
"Y  c #F8941D",
"T  c #F8951E",
"R  c #F79520",
"E  c #F79620",
"W  c #F79621",
"Q  c #F79721",
"!  c #F79622",
"~  c #F79722",
"^  c #F79723",
"/  c #F79724",
"(  c #F89620",
")  c #F89621",
"_  c #F89722",
"`  c #F79823",
"'  c #F79824",
"]  c #F79825",
"[  c #F79826",
"{  c #F79926",
"}  c #F79927",
"|  c #F89824",
" . c #F89826",
".. c #F89926",
"X. c #F89927",
"o. c #F79A28",
"O. c #F79B2C",
"+. c #F89928",
"@. c #F89929",
"#. c #F89A28",
"$. c #F89A29",
"%. c #F89A2A",
"&. c #F89B2A",
"*. c #F89B2B",
"=. c #F89B2C",
"-. c #F89B2E",
";. c #F89C2C",
":. c #F89D2C",
">. c #F89C2D",
",. c #F89C2E",
"<. c #F89D2E",
"1. c #F89D2F",
"2. c #F89D30",
"3. c #F89E30",
"4. c #F89E31",
"5. c #F89F32",
"6. c #F89F34",
"7. c #F89F35",
"8. c #F89F38",
"9. c #F7A035",
"0. c #F8A035",
"q. c #F8A036",
"w. c #F8A037",
"e. c #F8A138",
"r. c #F8A33B",
"t. c #F8A23D",
"y. c #F8A53F",
"u. c #F9A744",
"i. c #F9A846",
"p. c #F9A847",
"a. c #F8A64A",
"s. c #F9A848",
"d. c #F9A948",
"f. c #F9AA4B",
"g. c #F9AC4F",
"h. c #F9AC51",
"j. c #F9AF55",
"k. c #F9B059",
"l. c #F9B159",
"z. c #F9B25B",
"x. c #F9B361",
"c. c #F9B460",
"v. c #F9B461",
"b. c #FAB460",
"n. c #FAB560",
"m. c #FAB869",
"M. c #FABA6D",
"N. c #FABB6F",
"B. c #FABC71",
"V. c #FABD72",
"C. c #FABD74",
"Z. c #FABF77",
"A. c #FAC07A",
"S. c #FBC17A",
"D. c #FBC17C",
"F. c #FBC381",
"G. c #FBC482",
"H. c #FBC483",
"J. c #FBC682",
"K. c #FBC787",
"L. c #FBC88A",
"P. c #FBC88B",
"I. c #FBC88C",
"U. c #FBCA8E",
"Y. c #FBCB90",
"T. c #FBCC93",
"R. c #FBCE96",
"E. c #FBCF98",
"W. c #FBCF99",
"Q. c #FCCF99",
"!. c #FCD19C",
"~. c #FCD19D",
"^. c #FCD3A1",
"/. c #FCD3A2",
"(. c #FCD5A5",
"). c #FCD5A7",
"_. c #FCD6A8",
"`. c #FCD8AD",
"'. c #FCD9AF",
"]. c #FCDAAF",
"[. c #FCDBB3",
"{. c #FDDCB5",
"}. c #FDDDB7",
"|. c #FDDEBA",
" X c #FDE0BC",
".X c #FDE0BD",
"XX c #FDE0BE",
"oX c #FDE1C0",
"OX c #FDE2C2",
"+X c #FDE2C3",
"@X c #FDE3C3",
"#X c #FDE5C8",
"$X c #FDE6CA",
"%X c #FDE6CB",
"&X c #FDE8CF",
"*X c #FEE8CE",
"=X c #FEE9CF",
"-X c #FDECD6",
";X c #FEECD6",
":X c #FEEDD8",
">X c #FEEEDA",
",X c #FEEEDB",
"<X c #FEF0DE",
"1X c #FEF2E2",
"2X c #FEF2E4",
"3X c #FEF3E5",
"4X c #FEF4E7",
"5X c #FEF5E9",
"6X c #FEF6EC",
"7X c #FEF7ED",
"8X c #FEF7EE",
"9X c #FFF8F0",
"0X c #FEF8F1",
"qX c #FFF8F1",
"wX c #FEF9F2",
"eX c #FFF9F2",
"rX c #FEFAF3",
"tX c #FFFAF5",
"yX c #FFFBF6",
"uX c #FFFCF9",
"iX c #FFFEFC",
"pX c #FFFEFD",
"aX c white",
/* pixels */
"                                                                ",
"                                                                ",
"                            A A A A                             ",
"                    S S L S L L L L S L S A                     ",
"                A S S E E E E E E E E E E S A A                 ",
"              A S E E E / / } ` E } E } / E E L S               ",
"            A L E / / / } X.,.a 4 #.X.E } / E E L S             ",
"          A L E E / o.#.#.#.x D.Y.#.M M #.#.} E E L S           ",
"        A L E E } #.=.( a 3 4 aXaXh #X|.L #.X.} / E L L         ",
"        L E E } #.#.a I..XM.n.aXK.- aX;Xw #.#.X.} E L L         ",
"      S L E / #.#.;.a |.aXaXaXaXoX^.aXM.@ #.,.;.#./ E E A       ",
"      L E E } #.,.,.2.,.l.wXaXaXaXaXaX,XH.A ( ,.#.X.} L L       ",
"    A L E E #.=.,.2.0.} E wXaX,Xh.T.yXaXaX.XA ;.#.#.} E L A     ",
"    L L E } #.=.,.0.0.A B.aXaX(.@ x 2.,XaXaXS.a ,.#.} / L S     ",
"    L E } X.#.,.2.0.0.x _.aXaXs.o L . `.aXaXQ.w ,.#.X.E E S     ",
"  A A E E #.#.2.2.0.0.} ;XaXaX[.x.a.D.aXaXaXj.: x 2.X.} E L A   ",
"  A L E ` X.;.,.4.6.O.i.aXaXaXaXaXaXaXaX3Xm.M ^.B.L #.} L L A   ",
"  A A E ` X.#.,.4.6.A M.aXaX'.Z M.oXaXaX<X7.: aXwX4 =.x : u L   ",
"    L L ` X.#.2.4.A @ !.aXaXB.: X.4 I.aXaX8Xl 8X*Xu 4 y.@Xl.w   ",
"    L E E } X.,.L ~.W.3XaXyXw : ,.- E aXaXaXt.3X$X- h 8XaXt.    ",
"    A L E } X.M s.aXaXaXaXyXS.s.7.=.[.aXaXwXY wX{.. *XaXe.-     ",
"    A L E } X._ e.n.Y.&XaXaXaXaXaXaXaXaXaXR.- aXY.J.aXx.@ L     ",
"      L E E } =.#.h O k.aXW.^.aXaXaXaXaX(.A x 1X5XaXI.O L       ",
"      A L E E } #.O.4 $XaXw Z.aXl.s.n.u.h ( U :XaX`.- x A       ",
"        A L E / } X.A !.oXD aXaXa m M X.L @ #.aX;X- h E         ",
"          L E E ` } =.a m #.H.Z.D ;.;.U g.m.wX8Xh w E           ",
"          A S E E / } X.} #.4 p ,.#.X.: {.aXaX#.: E S           ",
"            A S L E E / / } #.X.X.X.} E 9.h.o.4 E S             ",
"                S L L E E E E E ` ` E } x 4 h L                 ",
"                  A S S E E E L L L L L L S A                   ",
"                        A S D L L D A A                         ",
"                            A A A A                             "
};
