/* XPM */
static char *_265da078c034c38bca8eaa09d00e6fdtiiK85LZUNHvY2ML[] = {
/* columns rows colors chars-per-pixel */
"16 16 110 2 ",
"   c None",
".  c #F46D00",
"X  c #F67E00",
"o  c #F68100",
"O  c #F68200",
"+  c #F68400",
"@  c #F78500",
"#  c #F68700",
"$  c #F78702",
"%  c #F68603",
"&  c #F68703",
"*  c #F78A08",
"=  c #F78D0C",
"-  c #F78D0E",
";  c #F78E10",
":  c #F78F11",
">  c #F68F12",
",  c #F6891A",
"<  c #F79013",
"1  c #F69014",
"2  c #F79014",
"3  c #F79115",
"4  c #F79217",
"5  c #F79218",
"6  c #F79319",
"7  c #F7931A",
"8  c #F7931B",
"9  c #F7941B",
"0  c #F7941C",
"q  c #F7941D",
"w  c #F7951E",
"e  c #F7951F",
"r  c #F7961F",
"t  c #F8931B",
"y  c #F8941B",
"u  c #F8941D",
"i  c #F79620",
"p  c #F79621",
"a  c #F79722",
"s  c #F79723",
"d  c #F79823",
"f  c #F79824",
"g  c #F79825",
"h  c #F79926",
"j  c #F89825",
"k  c #F89927",
"l  c #F79A29",
"z  c #F79B2A",
"x  c #F79B2B",
"c  c #F89A2A",
"v  c #F89B2A",
"b  c #F89B2C",
"n  c #F89B2F",
"m  c #F89D2E",
"M  c #F89D30",
"N  c #F89E31",
"B  c #F89E32",
"V  c #F89F33",
"C  c #F8A036",
"Z  c #F8A33C",
"A  c #F8A43D",
"S  c #F9A948",
"D  c #F9A949",
"F  c #F9AA4C",
"G  c #F9AC4E",
"H  c #F9AD50",
"J  c #F9AE52",
"K  c #FAAE53",
"L  c #F9AF57",
"P  c #FAB057",
"I  c #FAB159",
"U  c #FAB767",
"Y  c #FAB869",
"T  c #FAB96A",
"R  c #FAB96B",
"E  c #FABE76",
"W  c #FBC17D",
"Q  c #FBC27D",
"!  c #FBC584",
"~  c #FBC788",
"^  c #FBCA8F",
"/  c #FBCD94",
"(  c #FBCD96",
")  c #FCD4A5",
"_  c #FCD5A6",
"`  c #FCD8AD",
"'  c #FCD9AD",
"]  c #FCD9AE",
"[  c #FDDAB0",
"{  c #FCDAB1",
"}  c #FDDBB3",
"|  c #FCDEB8",
" . c #FDE0BD",
".. c #FDE1C0",
"X. c #FDE2C1",
"o. c #FDE8CD",
"O. c #FDE8CE",
"+. c #FDE9D1",
"@. c #FDEAD1",
"#. c #FEF1E1",
"$. c #FEF1E3",
"%. c #FEF4E8",
"&. c #FEF5E9",
"*. c #FEF8F0",
"=. c #FFF8F0",
"-. c #FFF9F3",
";. c #FFFAF5",
":. c #FFFBF5",
">. c #FFFDFB",
",. c white",
/* pixels */
"                                ",
"            q 9 q 7             ",
"        9 q k 2 > a q q         ",
"      q g t # Z F 7 l a q       ",
"    7 s 7 I R ] ) / = c a q     ",
"  7 a k u F *.,.:.%.m 7 c a 7   ",
"  q a c C # ) ;.C  .,.Z u d q   ",
"7 q g b N d *.&.9 ! ,.S > k 7 7 ",
"7 a s N 3 m ,.| @.,.( R Q # 8 a ",
"  q s t J X.,., .  .>.] I R ) a ",
"  q a - Q ,.,.{ ] ,.O.~ } $.l   ",
"    a b # U @.o.#.X.* U ,.b #   ",
"    7 a 8 K J ^ 3 o D =.L o     ",
"      7 s 3 > 7 j 3 ` E X       ",
"        7 q q a a a & &         ",
"              7 7               "
};
