<?xml version="1.0" encoding="utf-8"?>
<!-- Generator: Adobe Illustrator 21.0.0, SVG Export Plug-In . SVG Version: 6.00 Build 0)  -->
<svg version="1.1" id="图层_1" xmlns="http://www.w3.org/2000/svg" xmlns:xlink="http://www.w3.org/1999/xlink" x="0px" y="0px"
	 viewBox="0 0 677.9 677.9" style="enable-background:new 0 0 677.9 677.9;" xml:space="preserve">
<style type="text/css">
	.st0{fill:#FFFFFF;}
	.st1{fill:url(#_160104032_1_);}
	.st2{fill:url(#_160106768_1_);}
	.st3{fill:url(#_160107752_1_);}
</style>
<g id="图层_x0020_1">
	<g id="_160106024">
		<circle id="_160101776" class="st0" cx="337.6" cy="337.7" r="264.8"/>
		
			<radialGradient id="_160104032_1_" cx="310.4735" cy="359.4578" r="4.2694" gradientTransform="matrix(10.5386 0 0 -10.5386 -2899.7393 4054.6714)" gradientUnits="userSpaceOnUse">
			<stop  offset="0" style="stop-color:#F9AA4B"/>
			<stop  offset="1" style="stop-color:#F7931A"/>
			<stop  offset="1" style="stop-color:#F7931A"/>
		</radialGradient>
		<path id="_160104032" class="st1" d="M337.2,231.2l-18.5,74.3c21,5.2,85.7,26.6,96.2-15.4C425.8,246.2,358.2,236.4,337.2,231.2
			L337.2,231.2z"/>
		
			<radialGradient id="_160106768_1_" cx="308.447" cy="348.3406" r="4.9207" gradientTransform="matrix(10.5386 0 0 -10.5386 -2899.7393 4054.6714)" gradientUnits="userSpaceOnUse">
			<stop  offset="0" style="stop-color:#F9AA4B"/>
			<stop  offset="1" style="stop-color:#F7931A"/>
			<stop  offset="1" style="stop-color:#F7931A"/>
		</radialGradient>
		<path id="_160106768" class="st2" d="M309.3,342.9l-20.4,81.9c25.2,6.3,103,31.2,114.5-15C415.4,361.7,334.5,349.2,309.3,342.9
			L309.3,342.9z"/>
		
			<radialGradient id="_160107752_1_" cx="307.3147" cy="352.5793" r="31.9491" gradientTransform="matrix(10.5386 0 0 -10.5386 -2899.7393 4054.6714)" gradientUnits="userSpaceOnUse">
			<stop  offset="0" style="stop-color:#F9AA4B"/>
			<stop  offset="1" style="stop-color:#F7931A"/>
			<stop  offset="1" style="stop-color:#F7931A"/>
		</radialGradient>
		<path id="_160107752" class="st3" d="M420.9,10.1C239.3-35.1,55.4,75.4,10.1,257c-45.3,181.6,65.2,365.5,246.8,410.8
			c181.6,45.3,365.5-65.2,410.8-246.8C713,239.4,602.5,55.4,420.9,10.1L420.9,10.1z M488.3,290.7c-4.9,33-23.2,49-47.5,54.6
			c33.4,17.4,50.3,44,34.2,90.2c-20.1,57.4-67.8,62.2-131.2,50.2l-15.4,61.7l-37.2-9.3l15.2-60.9c-9.6-2.4-19.5-4.9-29.6-7.7
			l-15.2,61.1l-37.1-9.3l15.4-61.8c-8.7-2.2-17.5-4.6-26.5-6.8l-48.4-12.1l18.5-42.6c0,0,27.4,7.3,27,6.7c10.5,2.6,15.2-4.3,17-8.8
			l24.3-97.5l0.1-0.3l17.4-69.6c0.5-7.9-2.3-17.9-17.3-21.6c0.6-0.4-27-6.7-27-6.7l9.9-39.7l51.3,12.8l0,0.2
			c7.7,1.9,15.7,3.7,23.8,5.6l15.2-61.1l37.2,9.3l-14.9,59.9c10,2.3,20,4.6,29.8,7l14.8-59.5l37.2,9.3l-15.2,61.1
			C460.7,221.3,495.1,245.6,488.3,290.7L488.3,290.7z"/>
	</g>
	<path class="st0" d="M658.8,385.5L504.9,567.4c-5.6,6.8-11.4,11.5-17.5,14.4c-6,2.9-12.5,4.1-19.5,3.6c-7-0.4-15-2.4-24.1-5.9
		l-6.7-2.6l12.5-32.2l6.7,2.6c6.2,2.4,11.7,3.1,16.3,2c4.7-1.1,9.5-4.2,14.6-9.2l137.5-167.9L658.8,385.5L658.8,385.5z M508.1,327.1
		l34.1,13.2l-5.1,168.1l-32.5,29L508.1,327.1L508.1,327.1z"/>
</g>
</svg>
